<?xml version="1.0" encoding="UTF-8" standalone="no"?>
<svg width="180px" height="80px" viewBox="0 0 180 80" version="1.1" xmlns="http://www.w3.org/2000/svg" xmlns:xlink="http://www.w3.org/1999/xlink" xmlns:sketch="http://www.bohemiancoding.com/sketch/ns">
    <!-- Generator: Sketch 3.0.4 (8053) - http://www.bohemiancoding.com/sketch -->
    <title>dietary</title>
    <desc>Created with Sketch.</desc>
    <defs></defs>
    <g id="Welcome" stroke="none" stroke-width="1" fill="none" fill-rule="evenodd" sketch:type="MSPage">
        <g id="styles" sketch:type="MSArtboardGroup" transform="translate(-1018.000000, -708.000000)">
            <g id="dietary" sketch:type="MSLayerGroup" transform="translate(1018.000000, 708.000000)">
                <g id="dairy-free" transform="translate(50.000000, 0.000000)" sketch:type="MSShapeGroup">
                    <circle id="Oval-29" fill="#7ACAFF" cx="15" cy="15" r="15"></circle>
                    <path d="M22.212,14.592 C22.212,15.7080056 22.0050021,16.6709959 21.591,17.481 C21.1769979,18.291004 20.6310034,18.9569974 19.953,19.479 C19.2749966,20.0010026 18.5100043,20.3849988 17.658,20.631 C16.8059957,20.8770012 15.9420044,21 15.066,21 L10.314,21 L10.314,8.256 L14.922,8.256 C15.8220045,8.256 16.7099956,8.36099895 17.586,8.571 C18.4620044,8.78100105 19.2419966,9.12899757 19.926,9.615 C20.6100034,10.1010024 21.1619979,10.7519959 21.582,11.568 C22.0020021,12.3840041 22.212,13.391994 22.212,14.592 Z M19.008,14.592 C19.008,13.8719964 18.8910012,13.2750024 18.657,12.801 C18.4229988,12.3269976 18.111002,11.9490014 17.721,11.667 C17.3309981,11.3849986 16.8870025,11.1840006 16.389,11.064 C15.8909975,10.9439994 15.3780026,10.884 14.85,10.884 L13.32,10.884 L13.32,18.336 L14.778,18.336 C15.3300028,18.336 15.8609975,18.2730006 16.371,18.147 C16.8810026,18.0209994 17.3309981,17.8140014 17.721,17.526 C18.111002,17.2379986 18.4229988,16.8540024 18.657,16.374 C18.8910012,15.8939976 19.008,15.3000035 19.008,14.592 Z" id="D" fill="#FFFFFF"></path>
                </g>
                <g id="gluten-free" transform="translate(100.000000, 50.000000)" sketch:type="MSShapeGroup">
                    <path d="M15,30 C23.2842712,30 30,23.2842712 30,15 C30,6.71572875 23.2842712,0 15,0 C6.71572875,0 0,6.71572875 0,15 C0,23.2842712 6.71572875,30 15,30 Z M20.636,20.226 C20.0119969,20.5500016 19.2830042,20.813999 18.449,21.018 C17.6149958,21.222001 16.7060049,21.324 15.722,21.324 C14.7019949,21.324 13.7630043,21.1620016 12.905,20.838 C12.0469957,20.5139984 11.3090031,20.0580029 10.691,19.47 C10.0729969,18.8819971 9.59000174,18.1770041 9.242,17.355 C8.89399826,16.5329959 8.72,15.618005 8.72,14.61 C8.72,13.5899949 8.89699823,12.6660041 9.251,11.838 C9.60500177,11.0099959 10.0939969,10.3050029 10.718,9.723 C11.3420031,9.14099709 12.0739958,8.69400156 12.914,8.382 C13.7540042,8.06999844 14.6599951,7.914 15.632,7.914 C16.640005,7.914 17.5759957,8.06699847 18.44,8.373 C19.3040043,8.67900153 20.0059973,9.08999742 20.546,9.606 L18.602,11.82 C18.3019985,11.4719983 17.9060025,11.1870011 17.414,10.965 C16.9219975,10.7429989 16.3640031,10.632 15.74,10.632 C15.1999973,10.632 14.7020023,10.730999 14.246,10.929 C13.7899977,11.127001 13.3940017,11.4029982 13.058,11.757 C12.7219983,12.1110018 12.4610009,12.5309976 12.275,13.017 C12.0889991,13.5030024 11.996,14.0339971 11.996,14.61 C11.996,15.1980029 12.0799992,15.7379975 12.248,16.23 C12.4160008,16.7220025 12.6649984,17.1449982 12.995,17.499 C13.3250017,17.8530018 13.7329976,18.128999 14.219,18.327 C14.7050024,18.525001 15.2599969,18.624 15.884,18.624 C16.2440018,18.624 16.5859984,18.5970003 16.91,18.543 C17.2340016,18.4889997 17.5339986,18.4020006 17.81,18.282 L17.81,15.96 L15.38,15.96 L15.38,13.476 L20.636,13.476 L20.636,20.226 Z" id="Oval-30" fill="#FFB81F"></path>
                    <path d="M20.636,20.226 C20.0119969,20.5500016 19.2830042,20.813999 18.449,21.018 C17.6149958,21.222001 16.7060049,21.324 15.722,21.324 C14.7019949,21.324 13.7630043,21.1620016 12.905,20.838 C12.0469957,20.5139984 11.3090031,20.0580029 10.691,19.47 C10.0729969,18.8819971 9.59000174,18.1770041 9.242,17.355 C8.89399826,16.5329959 8.72,15.618005 8.72,14.61 C8.72,13.5899949 8.89699823,12.6660041 9.251,11.838 C9.60500177,11.0099959 10.0939969,10.3050029 10.718,9.723 C11.3420031,9.14099709 12.0739958,8.69400156 12.914,8.382 C13.7540042,8.06999844 14.6599951,7.914 15.632,7.914 C16.640005,7.914 17.5759957,8.06699847 18.44,8.373 C19.3040043,8.67900153 20.0059973,9.08999742 20.546,9.606 L18.602,11.82 C18.3019985,11.4719983 17.9060025,11.1870011 17.414,10.965 C16.9219975,10.7429989 16.3640031,10.632 15.74,10.632 C15.1999973,10.632 14.7020023,10.730999 14.246,10.929 C13.7899977,11.127001 13.3940017,11.4029982 13.058,11.757 C12.7219983,12.1110018 12.4610009,12.5309976 12.275,13.017 C12.0889991,13.5030024 11.996,14.0339971 11.996,14.61 C11.996,15.1980029 12.0799992,15.7379975 12.248,16.23 C12.4160008,16.7220025 12.6649984,17.1449982 12.995,17.499 C13.3250017,17.8530018 13.7329976,18.128999 14.219,18.327 C14.7050024,18.525001 15.2599969,18.624 15.884,18.624 C16.2440018,18.624 16.5859984,18.5970003 16.91,18.543 C17.2340016,18.4889997 17.5339986,18.4020006 17.81,18.282 L17.81,15.96 L15.38,15.96 L15.38,13.476 L20.636,13.476 L20.636,20.226 Z" id="G" fill="#FFFFFF"></path>
                </g>
                <g id="high-fib" transform="translate(0.000000, 50.000000)">
                    <circle id="Oval-31" fill="#644A18" sketch:type="MSShapeGroup" cx="15" cy="15" r="15"></circle>
                    <text id="HF" sketch:type="MSTextLayer" font-family="Avenir Next" font-size="16" font-weight="bold" fill="#FFFFFF">
                        <tspan x="4" y="21">HF</tspan>
                    </text>
                </g>
                <g id="low-fat" sketch:type="MSShapeGroup">
                    <circle id="Oval-32" fill="#5584C8" cx="15" cy="15" r="15"></circle>
                    <path d="M8.168,21 L8.168,9.672 L10.92,9.672 L10.92,18.616 L15.304,18.616 L15.304,21 L8.168,21 Z M19.288,12.008 L19.288,14.344 L23.672,14.344 L23.672,16.6 L19.288,16.6 L19.288,21 L16.584,21 L16.584,9.672 L24.04,9.672 L24.04,12.008 L19.288,12.008 Z" id="LF" fill="#FFFFFF"></path>
                </g>
                <g id="sodium" transform="translate(50.000000, 50.000000)">
                    <circle id="Oval-33" fill="#F47C7C" sketch:type="MSShapeGroup" cx="15" cy="15" r="15"></circle>
                    <text id="Na" sketch:type="MSTextLayer" font-family="Avenir Next" font-size="16" font-weight="bold" fill="#FFFFFF">
                        <tspan x="5" y="20">Na</tspan>
                    </text>
                </g>
                <g id="sugar" transform="translate(150.000000, 50.000000)">
                    <circle id="Oval-34" fill="#FF7AAB" sketch:type="MSShapeGroup" cx="15" cy="15" r="15"></circle>
                    <text id="S" sketch:type="MSTextLayer" font-family="Avenir Next" font-size="18" font-weight="bold" fill="#FFFFFF">
                        <tspan x="10" y="21">S</tspan>
                    </text>
                </g>
                <g id="vegan" transform="translate(150.000000, 0.000000)">
                    <circle id="Oval-35" fill="#417505" sketch:type="MSShapeGroup" cx="15" cy="15" r="15"></circle>
                    <text id="V+" sketch:type="MSTextLayer" font-family="Avenir Next" font-size="16" font-weight="bold" fill="#FFFFFF">
                        <tspan x="6" y="21">V+</tspan>
                    </text>
                </g>
                <g id="vegetarian" transform="translate(100.000000, 0.000000)">
                    <circle id="Oval-35" fill="#71CC68" sketch:type="MSShapeGroup" cx="15" cy="15" r="15"></circle>
                    <text id="V" sketch:type="MSTextLayer" font-family="Avenir Next" font-size="18" font-weight="bold" fill="#FFFFFF">
                        <tspan x="9" y="22">V</tspan>
                    </text>
                </g>
            </g>
        </g>
    </g>
</svg>