<?xml version="1.0" encoding="UTF-8" standalone="no"?>
<svg width="35px" height="33px" viewBox="0 0 35 33" version="1.1" xmlns="http://www.w3.org/2000/svg" xmlns:xlink="http://www.w3.org/1999/xlink" xmlns:sketch="http://www.bohemiancoding.com/sketch/ns">
    <!-- Generator: Sketch 3.0.4 (8053) - http://www.bohemiancoding.com/sketch -->
    <title>Rectangle 22</title>
    <desc>Created with Sketch.</desc>
    <defs></defs>
    <g id="Welcome" stroke="none" stroke-width="1" fill="none" fill-rule="evenodd" sketch:type="MSPage">
        <g id="Desktop-HD" sketch:type="MSArtboardGroup" transform="translate(-865.000000, -38.000000)" fill="#E5DCCA">
            <path d="M875.341566,44.2864872 L875.157501,44.3324016 C872.41995,45.0476222 868.827365,46.4278418 868.892888,47.0512546 C868.955171,47.643838 872.392435,48.2160639 875.157501,48.3825688 L875.157501,51.3237021 C871.803031,49.7705057 865.467116,47.8142006 865.027822,48.5750802 C864.530465,49.4365285 870.830935,55.0982612 873.554545,56.670738 C874.014934,56.9365437 874.562246,57.2104376 875.157501,57.4759409 L875.157501,66.1915044 L882.157501,66.1915044 L882.157501,70.1915044 L883.157501,70.1915044 L883.157501,66.2787161 C884.600203,66.955918 886.615554,67.5151689 887.976093,67.6581673 C890.340958,67.9067247 896.72251,67.1353052 896.807581,66.325906 C896.875118,65.6833339 893.056241,64.2367218 890.293121,63.5430357 C890.739445,63.3337051 891.151388,63.1214767 891.510457,62.9141682 C894.234066,61.3416913 900.534537,55.6799586 900.03718,54.8185103 C899.608573,54.0761422 893.566775,55.9203539 890.157501,57.4530978 L890.157501,45.8580535 C893.243792,43.6341148 898.071344,39.0217502 897.597058,38.2002625 C897.054486,37.2605007 888.743792,39.844679 885.947277,41.4592476 C885.110453,41.9423883 884.117152,42.6604426 883.157501,43.4667755 L883.157501,38.6915044 L882.157501,38.6915044 L882.157501,43.755085 C881.545583,43.2589334 880.929376,42.8229359 880.398074,42.5161886 C878.333979,41.3244832 872.188482,39.4368814 871.781553,40.1417028 C871.516983,40.5999526 873.415136,42.6096687 875.341567,44.2864882 L875.341566,44.2864872 L875.341566,44.2864872 Z M877.657501,62.7095044 L877.657501,47.6915044 L888.153501,47.6915044 L888.153501,50.6865044 L881.172501,50.6865044 L881.172501,53.6795044 L887.146501,53.6795044 L887.146501,56.7065044 L881.172501,56.7065044 L881.172501,59.6935044 L888.181501,59.6935044 L888.181501,62.7095044 L877.657501,62.7095044 L877.657501,62.7095044 Z" id="Rectangle-22" sketch:type="MSShapeGroup"></path>
        </g>
    </g>
</svg>