<?xml version="1.0" encoding="UTF-8" standalone="no"?>
<svg width="181px" height="141px" viewBox="0 0 181 141" version="1.1" xmlns="http://www.w3.org/2000/svg" xmlns:xlink="http://www.w3.org/1999/xlink" xmlns:sketch="http://www.bohemiancoding.com/sketch/ns">
    <!-- Generator: Sketch 3.0.4 (8053) - http://www.bohemiancoding.com/sketch -->
    <title>Dietary Constraints</title>
    <desc>Created with Sketch.</desc>
    <defs></defs>
    <g id="Welcome" stroke="none" stroke-width="1" fill="none" fill-rule="evenodd" sketch:type="MSPage">
        <g id="Desktop" sketch:type="MSArtboardGroup" transform="translate(-230.000000, -731.000000)">
            <g id="Dietary-Constraints" sketch:type="MSLayerGroup" transform="translate(230.000000, 732.000000)">
                <path d="M91,25.6480704 C51.2275446,-33.4738885 -11.2720282,22.832739 22.8186478,62.2473783 C38.1821792,80.0121193 91,127 91,127 C91,127 143.817821,80.0121193 159.181352,62.2473783 C193.272028,22.832739 130.772455,-33.4738885 91,25.6480704 L91,25.6480704 Z" id="Shape" stroke="#FFFFFF" stroke-width="2" sketch:type="MSShapeGroup"></path>
                <g id="gluten-free" transform="translate(151.000000, 24.000000)" sketch:type="MSShapeGroup">
                    <circle id="Oval-30" fill="#FFB81F" cx="15" cy="15" r="15"></circle>
                    <path d="M20.636,20.226 C20.0119969,20.5500016 19.2830042,20.813999 18.449,21.018 C17.6149958,21.222001 16.7060049,21.324 15.722,21.324 C14.7019949,21.324 13.7630043,21.1620016 12.905,20.838 C12.0469957,20.5139984 11.3090031,20.0580029 10.691,19.47 C10.0729969,18.8819971 9.59000174,18.1770041 9.242,17.355 C8.89399826,16.5329959 8.72,15.618005 8.72,14.61 C8.72,13.5899949 8.89699823,12.6660041 9.251,11.838 C9.60500177,11.0099959 10.0939969,10.3050029 10.718,9.723 C11.3420031,9.14099709 12.0739958,8.69400156 12.914,8.382 C13.7540042,8.06999844 14.6599951,7.914 15.632,7.914 C16.640005,7.914 17.5759957,8.06699847 18.44,8.373 C19.3040043,8.67900153 20.0059973,9.08999742 20.546,9.606 L18.602,11.82 C18.3019985,11.4719983 17.9060025,11.1870011 17.414,10.965 C16.9219975,10.7429989 16.3640031,10.632 15.74,10.632 C15.1999973,10.632 14.7020023,10.730999 14.246,10.929 C13.7899977,11.127001 13.3940017,11.4029982 13.058,11.757 C12.7219983,12.1110018 12.4610009,12.5309976 12.275,13.017 C12.0889991,13.5030024 11.996,14.0339971 11.996,14.61 C11.996,15.1980029 12.0799992,15.7379975 12.248,16.23 C12.4160008,16.7220025 12.6649984,17.1449982 12.995,17.499 C13.3250017,17.8530018 13.7329976,18.128999 14.219,18.327 C14.7050024,18.525001 15.2599969,18.624 15.884,18.624 C16.2440018,18.624 16.5859984,18.5970003 16.91,18.543 C17.2340016,18.4889997 17.5339986,18.4020006 17.81,18.282 L17.81,15.96 L15.38,15.96 L15.38,13.476 L20.636,13.476 L20.636,20.226 Z" id="G" fill="#FFFFFF"></path>
                </g>
                <g id="low-fat" transform="translate(75.000000, 0.000000)" sketch:type="MSShapeGroup">
                    <circle id="Oval-32" fill="#5584C8" cx="15" cy="15" r="15"></circle>
                    <path d="M8.168,21 L8.168,9.672 L10.92,9.672 L10.92,18.616 L15.304,18.616 L15.304,21 L8.168,21 Z M19.288,12.008 L19.288,14.344 L23.672,14.344 L23.672,16.6 L19.288,16.6 L19.288,21 L16.584,21 L16.584,9.672 L24.04,9.672 L24.04,12.008 L19.288,12.008 Z" id="LF" fill="#FFFFFF"></path>
                </g>
                <g id="vegetarian" transform="translate(75.000000, 110.000000)" sketch:type="MSShapeGroup">
                    <circle id="Oval-35" fill="#71CC68" cx="15" cy="15" r="15"></circle>
                    <path d="M16.632,22 L13.554,22 L8.73,9.256 L12.186,9.256 L15.138,18.292 L15.21,18.292 L18.144,9.256 L21.546,9.256 L16.632,22 Z" id="V" fill="#FFFFFF"></path>
                </g>
                <g id="vegan" transform="translate(0.000000, 24.000000)">
                    <circle id="Oval-35" fill="#7ACAFF" sketch:type="MSShapeGroup" cx="15" cy="15" r="15"></circle>
                    <text id="V+" sketch:type="MSTextLayer" font-family="Avenir Next" font-size="16" font-weight="bold" fill="#FFFFFF">
                        <tspan x="6" y="21">V+</tspan>
                    </text>
                </g>
            </g>
        </g>
    </g>
</svg>